<svg t="1724830053277" class="icon" viewBox="0 0 1024 1024" version="1.1" xmlns="http://www.w3.org/2000/svg" p-id="4428" width="20" height="20"><path d="M578.35790073 232.33166444l0.66509063 1.66409133 0.66509063-1.06450894c40.42859395-58.9619676 98.82464311-76.29799615 171.09479219-49.31314936l2.69584615 0.99900071C814.03745134 208.04175394 845.64790794 255.38965602 851.47086284 315.08404216c1.96342761 20.06462883 0.66509062 41.39302083-2.8286823 60.69247701l-0.86434487 4.59103602 1.66318149-0.3320904a95.66296056 95.66296056 0 0 1 38.86367482-0.20016408l2.66218218 0.5995824c40.72793022 9.31672785 75.66565964 49.57791182 87.84382394 98.49073303 13.50925537 54.13710357-2.29642783 109.47155222-48.34781262 149.06764557-61.2574856 54.83585814-94.63120575 136.65656309-99.75449622 246.56028773a19.49780056 19.49780056 0 0 1-20.43129303 18.56703764 19.49780056 19.49780056 0 0 1-18.63345568-20.33030117c5.55728259-119.65262494 42.95703014-211.29046793 112.93257103-274.01188077 34.87131134-29.94636526 46.31705708-70.14113118 36.26882054-110.46964306-8.88455542-35.7029021-33.60663834-64.25266803-58.66263133-69.9755409-14.90676456-3.46010898-29.71344707-0.56500859-43.6548749 6.65545549a80.88903216 80.88903216 0 0 0-9.58331 5.82295489l-1.66409134 1.23100906-2.16268182 1.66318149-0.39941832 0.26658216-0.23291821 0.2329182-0.36575435 0.2329182-1.56400929 0.66509063-4.65836391 1.89700952-1.06450896 0.20016407-1.29742713 0.16559028-1.59767325 0.10008204-3.19352684-0.16650011-5.85661886-1.82968161-6.38887334-4.99136416-3.72669115-6.92112781-0.79883662-5.72287287 0.2329182-2.99518242 0.33300024-1.46392728 0.16650011-0.66509061 1.86334557-4.29260956 0.49950036-0.99809087 0.2656723-0.39941831 0.40032816-0.53225448 0.16559027-0.16650012 0.20016408-0.33300023c9.48231812-14.97318263 17.73453703-53.57118513 14.44001834-87.1441595-4.49186382-45.91854862-27.38426511-80.22394153-73.20273168-97.95847857-69.11028619-26.68551052-115.79309764-4.22619149-147.73655449 72.40389506-7.41971832 17.73544687-33.44013821 15.20610083-37.26691138-3.6266091-18.96645594-93.79961497-66.41534987-130.66710808-147.93671857-117.32435279-89.5734235 16.96936435-119.45246085 69.20945839-93.9315413 166.70301039 4.72387217 18.00111919-16.2387655 31.67687469-30.97902993 20.197465-42.45752979-33.07438386-87.24424154-35.20431157-138.41982663-5.92303695l-1.63042737 0.93167279-1.46392726 1.130927c-47.8146483 36.60182077-58.3296311 73.00347746-41.72511124 118.55536188l0.79792679 2.1963458 1.3310911 3.3936909 0.69875459 1.69684547 1.43117314 3.39369091 0.76426282 1.66500116 1.53125517 3.42644503 1.63042738 3.3936909 1.73050941 3.46101882 1.79692749 3.46010898 1.92885381 3.56019104 1.99709158 3.59385497 2.16268183 3.66027305 2.26276388 3.76035511 2.39560005 3.85952731 2.52934602 3.95960932 2.66127237 4.05969138 2.79501836 4.22528166 2.96151847 4.32536368 3.12801858 4.52552778 3.26085475 4.65836392 3.460109 4.82486404 5.49086449 7.61988238L154.97903812 567.50003894l13.9414278 18.63345569c11.14731929 14.90676456 20.33030115 33.60663834 27.61718332 56.06686721l1.7305094 5.48995467c4.49186382 14.77392841 8.18580083 31.14462021 11.11365534 49.07932133l1.09817291 6.78738181 0.99809086 6.98754588 0.46583639 3.49377295 0.86434488 7.18770996 0.83250058 7.32054611 0.73241854 7.45338228 0.3320904 3.79310921 0.66600047 7.68630049 0.56591843 7.85189074c0.20016407 2.62942809 0.3320904 5.29161027 0.49859051 7.9865466l0.43308228 8.11847291 0.36575435 8.31863699 0.33300024 8.41871902 0.20016407 8.55155517 0.06550824 4.35811782 0.13283615 8.81813733 0.03366396 8.95097349v4.52461793l-0.03366396 9.18389169-0.06641808 4.65836393-0.13283616 9.38314592-0.13283615 4.75844596-0.2329182 9.64972808-0.33300022 9.74890029a19.49780056 19.49780056 0 0 1-20.26388309 18.73353773 19.49780056 19.49780056 0 0 1-18.83361976-20.13104692l0.33300024-9.41680987 0.13374599-4.65836393 0.20016407-9.18298185 0.16559027-9.05105552 0.06641809-8.85089146v-17.3023646l-0.13283616-8.4178092-0.16650011-8.25221889-0.2329182-8.11938275-0.16650013-3.99236345-0.33300021-7.85280061-0.39941833-7.71996442a793.35304023 793.35304023 0 0 0-0.23291819-3.82586335l-0.49859052-7.45338227-0.53225446-7.32054613-0.66600047-7.18770995-0.66509062-6.98754589a606.25240077 606.25240077 0 0 0-0.33300024-3.49377295l-0.79883663-6.75371784-0.86434486-6.6554555-0.43308227-3.22719078-0.93167279-6.38887334c-6.65454565-43.12262042-17.63536482-75.29899545-32.80871154-96.3280512L125.46575511 593.22112256l-6.58812757-8.91730953-6.15595513-8.41871903-3.85952731-5.32345455-5.45720055-7.71996443-3.39369091-4.89128213-3.26085475-4.75844596-3.09435462-4.65836392-2.96151848-4.45819986-2.79501835-4.35902764-2.6621822-4.25894561-2.49568205-4.19252753-1.23100908-2.02984569-2.32918197-4.05969137-1.130927-1.99618173-2.16359171-3.99327329-1.06450892-1.96251777-1.99618174-3.89410111-1.92976365-3.89228141-1.83059145-3.89319125-1.76326353-3.8595273a241.90192381 241.90192381 0 0 1-0.83159074-1.9634276l-1.66409133-3.89319126a248.09154292 248.09154292 0 0 1-0.76426283-1.96251778l-1.56491914-3.9932733c-24.12341037-63.38741333-8.25221891-119.12128031 56.33344936-167.36810103a19.56512849 19.56512849 0 0 1 1.76326352-1.16459096c50.24391229-29.61427487 98.89015134-35.30439361 144.14269951-16.8037741l1.56491912 0.66600048v-0.33300025C255.96454339 212.83295402 300.08616452 154.0383964 396.1812975 134.67252215l3.36093679-0.66509063c87.24424154-14.30809201 148.03589074 19.79804667 178.8147566 98.29147879z m-37.36699344 239.24065145c47.08222976 7.85189075 82.85245977 31.942547 112.26657059 63.81958577 43.18994833 46.84931156 65.38359504 99.88824222 65.21709493 158.75012778-0.06641807 20.43038317-4.724782 39.79625743-17.96836505 56.56545772-19.43138249 24.68932879-48.34690277 33.37462997-82.08637727 32.04353888-29.38135669-1.19825495-56.00044913-9.4168099-76.69741448-29.94727512-5.62279082-5.55637274-12.54391865-10.21473667-19.29763649-14.80668251a53.07168478 53.07168478 0 0 0-46.75104918-7.51980037c-8.48513709 2.49568208-17.3023646 4.858528-24.88858305 8.71805531-25.48816543 12.91058283-52.77325833 11.9780002-80.25669566 4.32536368-36.73465692-10.31481871-63.68674961-30.44586562-70.54145933-64.65117651-2.8951004-14.37541992-2.8951004-30.31302947 1.26467303-44.08795716 24.12341037-79.72535103 80.09019553-134.66038137 171.2612923-160.28138295a149.20048173 149.20048173 0 0 1 68.47794966-2.92785452z m262.49880713 6.58721774a63.55300361 63.55300361 0 1 1 63.52024949 110.03838049 63.55300361 63.55300361 0 0 1-63.55391343-110.03747065z m-582.29549052-93.2000326a84.68214138 84.68214138 0 1 1 0 169.3651926 84.68214138 84.68214138 0 0 1 0-169.3651926z m385.27945065-68.54436776a84.68214138 84.68214138 0 1 1 161.11388355 52.37384004 84.68214138 84.68214138 0 0 1-161.11388355-52.34017608z m-254.0800881-42.32469363a84.68214138 84.68214138 0 1 1 161.07930974 52.34017607 84.68214138 84.68214138 0 0 1-161.07930974-52.34017607z" fill="#f1760b" p-id="4429"></path></svg>