<svg t="1725595213960" class="icon" viewBox="0 0 1024 1024" version="1.1" xmlns="http://www.w3.org/2000/svg" p-id="8173" width="20" height="20"><path d="M509.742106 34.86188c-96.818487 0-189.482448 38.47451-257.761157 106.933851-68.278709 68.45934-106.753219 161.303934-106.753219 257.941789 0 145.408361 189.482448 434.960663 295.151878 559.777033 17.159993 20.41136 42.448404 32.152408 69.181867 32.152408h0.361263c26.733463 0 52.021873-11.741048 69.181866-32.152408C684.774034 834.698183 874.256483 544.96525 874.256483 399.73752c0.180632-201.404128-163.110249-364.875639-364.514377-364.87564z m8.128418 872.992062c-1.986947 2.34821-4.877051 3.61263-7.947786 3.612631h-0.361263c-3.070736 0-5.96084-1.445052-7.947787-3.793262-42.990298-50.757453-115.2429-149.201623-178.825189-260.109367-87.967543-154.078673-97.360381-224.705592-97.360381-247.826424 0-157.149409 127.345211-284.49462 284.313988-284.675252 157.149409 0.361263 284.313988 127.706474 284.313989 284.675252 0 69.543129-68.098077 196.527077-97.360381 247.826424-63.221027 110.907744-135.834892 209.171282-178.82519 260.289998z" fill="#252525" p-id="8174"></path><path d="M509.922738 217.2997h-0.361263c-88.509437 0-160.400776 71.891339-160.400776 160.400776s71.891339 160.400776 160.400776 160.400776h0.722526c88.509437-0.180632 160.220145-72.07197 160.220144-160.581407-0.180632-88.690069-72.07197-160.400776-160.581407-160.220145z m0 240.601164h-0.541895c-44.254719 0-80.200388-35.945669-80.200388-80.200388s35.945669-80.200388 80.200388-80.200388h0.180632c44.254719 0 80.200388 35.765038 80.381019 80.019757 0.180632 44.254719-35.584406 80.200388-80.019756 80.381019z" fill="#252525" p-id="8175"></path></svg>